<svg  xmlns="http://www.w3.org/2000/svg" style="height: 748px;" viewBox="0 0 325 100">
    <defs>
        <linearGradient x1="69.76262" y1="235" x2="480.23738" y2="235" gradientUnits="userSpaceOnUse"
            id="color-16073115862">
            <stop offset="0" stop-color="#4568dc"></stop>
            <stop offset="1" stop-color="#b06ab3"></stop>
        </linearGradient>
    </defs>
    <g fill="url(#color-16073115862)" fill-rule="none" stroke="none" stroke-width="1" stroke-linecap="butt"
        stroke-linejoin="miter" stroke-miterlimit="10" stroke-dasharray="" stroke-dashoffset="0" font-family="none"
        font-weight="none" font-size="none" text-anchor="none" style="mix-blend-mode: normal">
        <g>
            <path
                d="M111.30313,70.64181c0,1.64313 -0.28241,3.40607 -0.84724,5.28882c-0.56483,1.88275 -1.48909,3.62858 -2.77278,5.23748c-1.28369,1.6089 -2.9525,2.9525 -5.00641,4.0308c-2.05391,1.0783 -4.56995,1.61746 -7.54813,1.61746h-50.68028c-0.95849,0 -1.84852,-0.17116 -2.67009,-0.51348c-0.82156,-0.34232 -1.53188,-0.81301 -2.13093,-1.41206c-0.59906,-0.59906 -1.06975,-1.30937 -1.41206,-2.13093c-0.34232,-0.82156 -0.51348,-1.71159 -0.51348,-2.67009v-60.17962c0,-0.92426 0.17116,-1.79717 0.51348,-2.61874c0.34232,-0.82156 0.81301,-1.54043 1.41206,-2.15661c0.59906,-0.61617 1.30937,-1.09542 2.13093,-1.43774c0.82156,-0.34232 1.71159,-0.51348 2.67009,-0.51348h44.67258c1.64313,0 3.40607,0.29097 5.28882,0.87291c1.88275,0.58194 3.63714,1.51476 5.26315,2.79845c1.62601,1.28369 2.97817,2.9525 4.05648,5.00641c1.0783,2.05391 1.61746,4.56995 1.61746,7.54813v2.51604c0,2.362 -0.39367,4.90371 -1.181,7.62515c-0.78733,2.72143 -2.05391,5.29738 -3.79974,7.72784c1.5062,0.92426 2.91827,2.0368 4.23619,3.33761c1.31793,1.30081 2.47325,2.80701 3.46598,4.51861c0.99272,1.71159 1.78006,3.64569 2.362,5.8023c0.58194,2.15661 0.87291,4.53572 0.87291,7.13734zM97.9527,68.07442c0,-1.74583 -0.27385,-3.31193 -0.82156,-4.69832c-0.54771,-1.38639 -1.31793,-2.57595 -2.31065,-3.56867c-0.99272,-0.99272 -2.19084,-1.75438 -3.59435,-2.28498c-1.40351,-0.53059 -2.97817,-0.79589 -4.724,-0.79589h-30.08981v-13.45312h24.08212c1.74583,0 3.32049,-0.2653 4.724,-0.79589c1.40351,-0.53059 2.60162,-1.29225 3.59435,-2.28498c0.99272,-0.99272 1.75438,-2.18228 2.28498,-3.56867c0.53059,-1.38639 0.79589,-2.9525 0.79589,-4.69832v-2.51604c0,-1.91698 -0.92426,-2.87548 -2.77278,-2.87548h-38.04872v46.93189h44.05641c0.23962,0 0.53059,-0.01712 0.87291,-0.05135c0.34232,-0.03423 0.65041,-0.13693 0.92426,-0.30809c0.27385,-0.17116 0.51348,-0.46213 0.71887,-0.87291c0.20539,-0.41078 0.30809,-0.97561 0.30809,-1.69448z"
            />
            <path
                d="M196.38643,56.00769c0,4.48437 -0.77877,8.60931 -2.33632,12.37482c-1.55755,3.76551 -3.7056,7.00897 -6.44415,9.73041c-2.73855,2.72143 -5.99058,4.85237 -9.75608,6.3928c-3.76551,1.54043 -7.85621,2.31065 -12.27212,2.31065h-36.04615c-0.95849,0 -1.84852,-0.17116 -2.67009,-0.51348c-0.82156,-0.34232 -1.53188,-0.81301 -2.13093,-1.41206c-0.59906,-0.59906 -1.06975,-1.30937 -1.41206,-2.13093c-0.34232,-0.82156 -0.51348,-1.71159 -0.51348,-2.67009v-60.17962c0,-0.92426 0.17116,-1.79717 0.51348,-2.61874c0.34232,-0.82156 0.81301,-1.54043 1.41206,-2.15661c0.59906,-0.61617 1.30937,-1.09542 2.13093,-1.43774c0.82156,-0.34232 1.71159,-0.51348 2.67009,-0.51348h36.04615c4.41591,0 8.50662,0.77022 12.27212,2.31065c3.76551,1.54043 7.01753,3.67137 9.75608,6.3928c2.73855,2.72143 4.8866,5.97346 6.44415,9.75608c1.55755,3.78262 2.33632,7.899 2.33632,12.34915zM183.036,43.99231c0,-2.60162 -0.41934,-4.98074 -1.25802,-7.13734c-0.83868,-2.15661 -2.02824,-3.99657 -3.56867,-5.51989c-1.54043,-1.52332 -3.3804,-2.70432 -5.51989,-3.543c-2.13949,-0.83868 -4.51005,-1.25802 -7.11167,-1.25802h-29.42229v46.93189h29.42229c2.60162,0 4.97218,-0.41934 7.11167,-1.25802c2.13949,-0.83868 3.97945,-2.01968 5.51989,-3.543c1.54043,-1.52332 2.72999,-3.35472 3.56867,-5.49421c0.83868,-2.13949 1.25802,-4.52716 1.25802,-7.16302z"
            />
            <path
                d="M280.23738,65.1476c0,2.63585 -0.33376,5.00641 -1.00128,7.11167c-0.66752,2.10526 -1.54899,3.96234 -2.64441,5.57124c-1.09542,1.6089 -2.37911,2.97817 -3.85108,4.10782c-1.47197,1.12965 -2.99529,2.05391 -4.56995,2.77278c-1.57467,0.71887 -3.17501,1.24946 -4.80102,1.59178c-1.62601,0.34232 -3.15789,0.51348 -4.59563,0.51348h-51.50184v-13.35043h51.50184c2.56739,0 4.5614,-0.7531 5.98202,-2.2593c1.42062,-1.5062 2.13093,-3.52588 2.13093,-6.05904c0,-1.23235 -0.18828,-2.362 -0.56483,-3.38895c-0.37655,-1.02696 -0.9157,-1.91698 -1.61746,-2.67009c-0.70175,-0.7531 -1.55755,-1.33504 -2.56739,-1.74583c-1.00984,-0.41078 -2.13093,-0.61617 -3.36328,-0.61617h-30.70598c-2.15661,0 -4.48437,-0.38511 -6.9833,-1.15533c-2.49893,-0.77022 -4.81813,-2.01112 -6.95763,-3.72272c-2.13949,-1.71159 -3.91955,-3.95378 -5.34017,-6.72656c-1.42062,-2.77278 -2.13093,-6.16174 -2.13093,-10.16686c0,-4.00513 0.71031,-7.38552 2.13093,-10.14119c1.42062,-2.75567 3.20068,-4.99785 5.34017,-6.72656c2.13949,-1.72871 4.4587,-2.97817 6.95763,-3.74839c2.49893,-0.77022 4.82669,-1.15533 6.9833,-1.15533h45.4428v13.35043h-45.4428c-2.53316,0 -4.51005,0.77022 -5.93067,2.31065c-1.42062,1.54043 -2.13093,3.57723 -2.13093,6.11039c0,2.56739 0.71031,4.59563 2.13093,6.08471c1.42062,1.48909 3.39751,2.23363 5.93067,2.23363h30.70598h0.1027c1.43774,0.03423 2.96106,0.23107 4.56995,0.5905c1.6089,0.35943 3.20924,0.9157 4.80102,1.6688c1.59178,0.7531 3.10654,1.70304 4.54428,2.8498c1.43774,1.14677 2.71288,2.5246 3.82541,4.1335c1.11254,1.6089 1.99401,3.45742 2.64441,5.54556c0.65041,2.08814 0.97561,4.45014 0.97561,7.086z"
            />
        </g>
    </g>
</svg>